<mxfile host="65bd71144e">
    <diagram id="mGNS0_z790fEsQeWo3U5" name="Página-1">
        <mxGraphModel dx="1345" dy="1536" grid="1" gridSize="10" guides="1" tooltips="1" connect="1" arrows="1" fold="1" page="1" pageScale="1" pageWidth="827" pageHeight="1169" math="0" shadow="0">
            <root>
                <mxCell id="0"/>
                <mxCell id="1" parent="0"/>
                <mxCell id="5" style="edgeStyle=none;html=1;exitX=0.5;exitY=1;exitDx=0;exitDy=0;entryX=0.5;entryY=0;entryDx=0;entryDy=0;startArrow=none;" edge="1" parent="1" source="8" target="3">
                    <mxGeometry relative="1" as="geometry"/>
                </mxCell>
                <mxCell id="6" style="edgeStyle=none;html=1;exitX=0.5;exitY=1;exitDx=0;exitDy=0;entryX=0.5;entryY=0;entryDx=0;entryDy=0;startArrow=none;" edge="1" parent="1" source="10" target="4">
                    <mxGeometry relative="1" as="geometry"/>
                </mxCell>
                <mxCell id="2" value="Interface de Controle" style="swimlane;" vertex="1" parent="1">
                    <mxGeometry y="-20" width="800" height="250" as="geometry"/>
                </mxCell>
                <mxCell id="37" value="C : conecta um roteador em outro, colocando na lista de vizinhos, indicando que deve receber anúncios de rotas" style="text;html=1;strokeColor=none;fillColor=none;align=center;verticalAlign=middle;whiteSpace=wrap;rounded=0;" vertex="1" parent="2">
                    <mxGeometry x="40" y="100" width="610" height="30" as="geometry"/>
                </mxCell>
                <mxCell id="38" value="D : desconecta um roteador de outro (o segundo deixa de aparecer na lista de vizinhos), atualização de rota de custo infinito" style="text;html=1;strokeColor=none;fillColor=none;align=center;verticalAlign=middle;whiteSpace=wrap;rounded=0;" vertex="1" parent="2">
                    <mxGeometry x="30" y="130" width="690" height="30" as="geometry"/>
                </mxCell>
                <mxCell id="39" value="I : inicia o roteamento a partir do roteador (após 1 seg)" style="text;html=1;strokeColor=none;fillColor=none;align=center;verticalAlign=middle;whiteSpace=wrap;rounded=0;" vertex="1" parent="2">
                    <mxGeometry x="30" y="160" width="330" height="30" as="geometry"/>
                </mxCell>
                <mxCell id="36" value="Comando:&lt;br&gt;IP (ou nome) e porto do alvo, letra com operação, parâmetros necessários" style="rounded=0;whiteSpace=wrap;html=1;" vertex="1" parent="2">
                    <mxGeometry x="40" y="40" width="720" height="50" as="geometry"/>
                </mxCell>
                <mxCell id="40" value="E : entrega a mensagem para o roteador e pede pra rotear para o destino" style="text;html=1;strokeColor=none;fillColor=none;align=center;verticalAlign=middle;whiteSpace=wrap;rounded=0;" vertex="1" parent="2">
                    <mxGeometry x="40" y="190" width="400" height="30" as="geometry"/>
                </mxCell>
                <mxCell id="12" style="edgeStyle=none;html=1;exitX=1;exitY=0.5;exitDx=0;exitDy=0;entryX=0;entryY=0.5;entryDx=0;entryDy=0;" edge="1" parent="1" source="3" target="4">
                    <mxGeometry relative="1" as="geometry"/>
                </mxCell>
                <mxCell id="3" value="Roteador DCCRIP X" style="swimlane;" vertex="1" parent="1">
                    <mxGeometry x="150" y="360" width="200" height="200" as="geometry"/>
                </mxCell>
                <mxCell id="21" value="lista de enlaces para vizinhos&lt;br&gt;(nome, IP, porto)" style="rounded=0;whiteSpace=wrap;html=1;" vertex="1" parent="3">
                    <mxGeometry x="40" y="35" width="120" height="45" as="geometry"/>
                </mxCell>
                <mxCell id="23" value="tabela de roteamento (nome destino, distancia, nome prox passo)" style="rounded=0;whiteSpace=wrap;html=1;" vertex="1" parent="3">
                    <mxGeometry x="40" y="95" width="120" height="65" as="geometry"/>
                </mxCell>
                <mxCell id="4" value="Roteador DCCRIP Y" style="swimlane;" vertex="1" parent="1">
                    <mxGeometry x="450" y="360" width="200" height="200" as="geometry"/>
                </mxCell>
                <mxCell id="22" value="lista de enlaces para vizinhos&lt;br&gt;(nome, IP, porto)" style="rounded=0;whiteSpace=wrap;html=1;" vertex="1" parent="4">
                    <mxGeometry x="40" y="37.5" width="120" height="45" as="geometry"/>
                </mxCell>
                <mxCell id="27" value="tabela de roteamento (nome destino, distancia, nome prox passo)" style="rounded=0;whiteSpace=wrap;html=1;" vertex="1" parent="4">
                    <mxGeometry x="40" y="95" width="120" height="65" as="geometry"/>
                </mxCell>
                <mxCell id="8" value="UDP" style="text;html=1;strokeColor=none;fillColor=none;align=center;verticalAlign=middle;whiteSpace=wrap;rounded=0;" vertex="1" parent="1">
                    <mxGeometry x="290" y="285" width="60" height="30" as="geometry"/>
                </mxCell>
                <mxCell id="9" value="" style="edgeStyle=none;html=1;exitX=0.5;exitY=1;exitDx=0;exitDy=0;entryX=0.5;entryY=0;entryDx=0;entryDy=0;endArrow=none;" edge="1" parent="1" source="2" target="8">
                    <mxGeometry relative="1" as="geometry">
                        <mxPoint x="400" y="230" as="sourcePoint"/>
                        <mxPoint x="250" y="360" as="targetPoint"/>
                    </mxGeometry>
                </mxCell>
                <mxCell id="10" value="UDP" style="text;html=1;strokeColor=none;fillColor=none;align=center;verticalAlign=middle;whiteSpace=wrap;rounded=0;" vertex="1" parent="1">
                    <mxGeometry x="450" y="285" width="60" height="30" as="geometry"/>
                </mxCell>
                <mxCell id="11" value="" style="edgeStyle=none;html=1;exitX=0.5;exitY=1;exitDx=0;exitDy=0;entryX=0.5;entryY=0;entryDx=0;entryDy=0;endArrow=none;" edge="1" parent="1" source="2" target="10">
                    <mxGeometry relative="1" as="geometry">
                        <mxPoint x="400" y="230" as="sourcePoint"/>
                        <mxPoint x="550" y="360" as="targetPoint"/>
                    </mxGeometry>
                </mxCell>
                <mxCell id="13" value="Mensagem" style="swimlane;" vertex="1" parent="1">
                    <mxGeometry x="-90" y="730" width="200" height="280" as="geometry"/>
                </mxCell>
                <mxCell id="14" value="id da mensagem" style="rounded=0;whiteSpace=wrap;html=1;" vertex="1" parent="13">
                    <mxGeometry x="40" y="40" width="120" height="40" as="geometry"/>
                </mxCell>
                <mxCell id="31" value="nome do roteador origem" style="rounded=0;whiteSpace=wrap;html=1;" vertex="1" parent="13">
                    <mxGeometry x="40" y="90" width="120" height="40" as="geometry"/>
                </mxCell>
                <mxCell id="32" value="numero de rotas no anuncio" style="rounded=0;whiteSpace=wrap;html=1;" vertex="1" parent="13">
                    <mxGeometry x="40" y="140" width="120" height="40" as="geometry"/>
                </mxCell>
                <mxCell id="33" value="anuncios: nome do destino, custo da rota" style="rounded=0;whiteSpace=wrap;html=1;" vertex="1" parent="13">
                    <mxGeometry x="40" y="190" width="120" height="60" as="geometry"/>
                </mxCell>
                <mxCell id="25" style="edgeStyle=none;html=1;exitX=1;exitY=0.5;exitDx=0;exitDy=0;entryX=0;entryY=0.25;entryDx=0;entryDy=0;" edge="1" parent="1" source="16" target="3">
                    <mxGeometry relative="1" as="geometry"/>
                </mxCell>
                <mxCell id="16" value="identificador (string)" style="rounded=0;whiteSpace=wrap;html=1;" vertex="1" parent="1">
                    <mxGeometry x="-80" y="395" width="120" height="50" as="geometry"/>
                </mxCell>
                <mxCell id="26" style="edgeStyle=none;html=1;exitX=1;exitY=0.5;exitDx=0;exitDy=0;entryX=0;entryY=0.25;entryDx=0;entryDy=0;" edge="1" parent="1" source="17" target="3">
                    <mxGeometry relative="1" as="geometry">
                        <mxPoint x="110" y="470" as="targetPoint"/>
                    </mxGeometry>
                </mxCell>
                <mxCell id="17" value="porto (inteiro)" style="rounded=0;whiteSpace=wrap;html=1;" vertex="1" parent="1">
                    <mxGeometry x="-80" y="475" width="120" height="50" as="geometry"/>
                </mxCell>
                <mxCell id="18" value="mensagem" style="text;html=1;strokeColor=none;fillColor=none;align=center;verticalAlign=middle;whiteSpace=wrap;rounded=0;" vertex="1" parent="1">
                    <mxGeometry x="360" y="285" width="80" height="30" as="geometry"/>
                </mxCell>
                <mxCell id="19" value="mensagem&lt;br&gt;UDP" style="text;html=1;strokeColor=none;fillColor=none;align=center;verticalAlign=middle;whiteSpace=wrap;rounded=0;" vertex="1" parent="1">
                    <mxGeometry x="360" y="470" width="80" height="30" as="geometry"/>
                </mxCell>
                <mxCell id="29" style="edgeStyle=none;html=1;exitX=0.5;exitY=1;exitDx=0;exitDy=0;entryX=0.5;entryY=0;entryDx=0;entryDy=0;" edge="1" parent="1" source="28" target="30">
                    <mxGeometry relative="1" as="geometry">
                        <mxPoint x="400" y="650" as="targetPoint"/>
                    </mxGeometry>
                </mxCell>
                <mxCell id="28" value="Roteamento" style="text;html=1;strokeColor=none;fillColor=none;align=center;verticalAlign=middle;whiteSpace=wrap;rounded=0;" vertex="1" parent="1">
                    <mxGeometry x="370" y="520" width="60" height="30" as="geometry"/>
                </mxCell>
                <mxCell id="30" value="Anúncio: implementar split horizon e poisoned reverse" style="rounded=0;whiteSpace=wrap;html=1;" vertex="1" parent="1">
                    <mxGeometry x="340" y="630" width="120" height="60" as="geometry"/>
                </mxCell>
                <mxCell id="34" value="Protocolo de roteamento" style="swimlane;" vertex="1" parent="1">
                    <mxGeometry x="930" y="30" width="200" height="200" as="geometry"/>
                </mxCell>
                <mxCell id="35" value="Protocolo de controle" style="swimlane;" vertex="1" parent="1">
                    <mxGeometry x="930" y="285" width="200" height="200" as="geometry"/>
                </mxCell>
                <mxCell id="51" value="" style="rounded=0;whiteSpace=wrap;html=1;" vertex="1" parent="1">
                    <mxGeometry x="580" y="675" width="120" height="50" as="geometry"/>
                </mxCell>
                <mxCell id="52" value="R1" style="ellipse;whiteSpace=wrap;html=1;aspect=fixed;" vertex="1" parent="1">
                    <mxGeometry x="840" y="1010" width="60" height="60" as="geometry"/>
                </mxCell>
                <mxCell id="57" style="edgeStyle=none;html=1;exitX=0.5;exitY=1;exitDx=0;exitDy=0;entryX=0.5;entryY=0;entryDx=0;entryDy=0;startArrow=none;" edge="1" parent="1" source="60" target="52">
                    <mxGeometry relative="1" as="geometry"/>
                </mxCell>
                <mxCell id="54" value="" style="rhombus;whiteSpace=wrap;html=1;" vertex="1" parent="1">
                    <mxGeometry x="830" y="820" width="80" height="80" as="geometry"/>
                </mxCell>
                <mxCell id="59" style="edgeStyle=none;html=1;exitX=0.5;exitY=1;exitDx=0;exitDy=0;entryX=0.5;entryY=0;entryDx=0;entryDy=0;" edge="1" parent="1" source="56" target="54">
                    <mxGeometry relative="1" as="geometry"/>
                </mxCell>
                <mxCell id="56" value="1. R1 C R2" style="text;html=1;strokeColor=none;fillColor=none;align=center;verticalAlign=middle;whiteSpace=wrap;rounded=0;" vertex="1" parent="1">
                    <mxGeometry x="830" y="710" width="80" height="30" as="geometry"/>
                </mxCell>
                <mxCell id="60" value="C R2" style="text;html=1;strokeColor=none;fillColor=none;align=center;verticalAlign=middle;whiteSpace=wrap;rounded=0;" vertex="1" parent="1">
                    <mxGeometry x="840" y="935" width="60" height="30" as="geometry"/>
                </mxCell>
                <mxCell id="61" value="" style="edgeStyle=none;html=1;exitX=0.5;exitY=1;exitDx=0;exitDy=0;entryX=0.5;entryY=0;entryDx=0;entryDy=0;endArrow=none;" edge="1" parent="1" source="54" target="60">
                    <mxGeometry relative="1" as="geometry">
                        <mxPoint x="870" y="900" as="sourcePoint"/>
                        <mxPoint x="870" y="1010" as="targetPoint"/>
                    </mxGeometry>
                </mxCell>
                <mxCell id="63" style="edgeStyle=none;html=1;exitX=1;exitY=0.5;exitDx=0;exitDy=0;entryX=0;entryY=0.5;entryDx=0;entryDy=0;" edge="1" parent="1" source="64" target="67">
                    <mxGeometry relative="1" as="geometry"/>
                </mxCell>
                <mxCell id="64" value="R1" style="ellipse;whiteSpace=wrap;html=1;aspect=fixed;" vertex="1" parent="1">
                    <mxGeometry x="1031" y="840" width="60" height="60" as="geometry"/>
                </mxCell>
                <mxCell id="67" value="R2" style="ellipse;whiteSpace=wrap;html=1;aspect=fixed;" vertex="1" parent="1">
                    <mxGeometry x="1181" y="840" width="60" height="60" as="geometry"/>
                </mxCell>
                <mxCell id="72" value="" style="shape=flexArrow;endArrow=classic;html=1;" edge="1" parent="1">
                    <mxGeometry width="50" height="50" relative="1" as="geometry">
                        <mxPoint x="930" y="890" as="sourcePoint"/>
                        <mxPoint x="1000" y="880" as="targetPoint"/>
                    </mxGeometry>
                </mxCell>
                <mxCell id="74" style="edgeStyle=none;html=1;exitX=1;exitY=0.5;exitDx=0;exitDy=0;entryX=0;entryY=0.5;entryDx=0;entryDy=0;" edge="1" parent="1" source="75" target="76">
                    <mxGeometry relative="1" as="geometry"/>
                </mxCell>
                <mxCell id="95" value="" style="edgeStyle=none;html=1;dashed=1;dashPattern=1 1;endArrow=none;endFill=0;" edge="1" parent="1" source="75" target="94">
                    <mxGeometry relative="1" as="geometry"/>
                </mxCell>
                <mxCell id="75" value="R1" style="ellipse;whiteSpace=wrap;html=1;aspect=fixed;" vertex="1" parent="1">
                    <mxGeometry x="827" y="1270" width="60" height="60" as="geometry"/>
                </mxCell>
                <mxCell id="78" value="" style="edgeStyle=none;html=1;" edge="1" parent="1" source="76" target="77">
                    <mxGeometry relative="1" as="geometry"/>
                </mxCell>
                <mxCell id="80" value="" style="edgeStyle=none;html=1;" edge="1" parent="1" source="76" target="79">
                    <mxGeometry relative="1" as="geometry"/>
                </mxCell>
                <mxCell id="97" value="" style="edgeStyle=none;html=1;dashed=1;dashPattern=1 1;endArrow=none;endFill=0;" edge="1" parent="1" source="76" target="96">
                    <mxGeometry relative="1" as="geometry"/>
                </mxCell>
                <mxCell id="98" style="edgeStyle=none;html=1;exitX=0;exitY=1;exitDx=0;exitDy=0;entryX=1;entryY=1;entryDx=0;entryDy=0;dashed=1;dashPattern=1 1;endArrow=none;endFill=0;startArrow=none;" edge="1" parent="1" source="99" target="75">
                    <mxGeometry relative="1" as="geometry">
                        <Array as="points"/>
                    </mxGeometry>
                </mxCell>
                <mxCell id="76" value="R2" style="ellipse;whiteSpace=wrap;html=1;aspect=fixed;" vertex="1" parent="1">
                    <mxGeometry x="977" y="1270" width="60" height="60" as="geometry"/>
                </mxCell>
                <mxCell id="82" value="" style="edgeStyle=none;html=1;" edge="1" parent="1" source="77" target="81">
                    <mxGeometry relative="1" as="geometry"/>
                </mxCell>
                <mxCell id="77" value="R3" style="ellipse;whiteSpace=wrap;html=1;aspect=fixed;" vertex="1" parent="1">
                    <mxGeometry x="1060" y="1400" width="60" height="60" as="geometry"/>
                </mxCell>
                <mxCell id="79" value="R5" style="ellipse;whiteSpace=wrap;html=1;aspect=fixed;" vertex="1" parent="1">
                    <mxGeometry x="1130" y="1210" width="60" height="60" as="geometry"/>
                </mxCell>
                <mxCell id="81" value="R4" style="ellipse;whiteSpace=wrap;html=1;aspect=fixed;" vertex="1" parent="1">
                    <mxGeometry x="1230" y="1410" width="60" height="60" as="geometry"/>
                </mxCell>
                <mxCell id="86" value="" style="rhombus;whiteSpace=wrap;html=1;" vertex="1" parent="1">
                    <mxGeometry x="670" y="1200" width="80" height="80" as="geometry"/>
                </mxCell>
                <mxCell id="87" style="edgeStyle=none;html=1;exitX=0.5;exitY=1;exitDx=0;exitDy=0;entryX=0.5;entryY=0;entryDx=0;entryDy=0;" edge="1" parent="1" source="88" target="86">
                    <mxGeometry relative="1" as="geometry"/>
                </mxCell>
                <mxCell id="88" value="1. R1 I" style="text;html=1;strokeColor=none;fillColor=none;align=center;verticalAlign=middle;whiteSpace=wrap;rounded=0;" vertex="1" parent="1">
                    <mxGeometry x="670" y="1090" width="80" height="30" as="geometry"/>
                </mxCell>
                <mxCell id="90" value="I" style="text;html=1;strokeColor=none;fillColor=none;align=center;verticalAlign=middle;whiteSpace=wrap;rounded=0;" vertex="1" parent="1">
                    <mxGeometry x="737" y="1275" width="60" height="30" as="geometry"/>
                </mxCell>
                <mxCell id="91" value="" style="edgeStyle=none;html=1;exitX=0.5;exitY=1;exitDx=0;exitDy=0;entryX=0;entryY=0.5;entryDx=0;entryDy=0;endArrow=none;" edge="1" parent="1" source="86" target="90">
                    <mxGeometry relative="1" as="geometry">
                        <mxPoint x="710" y="1280" as="sourcePoint"/>
                        <mxPoint x="827" y="1300" as="targetPoint"/>
                    </mxGeometry>
                </mxCell>
                <mxCell id="94" value="R1 0 R1&lt;br&gt;R2 1 R2" style="whiteSpace=wrap;html=1;" vertex="1" parent="1">
                    <mxGeometry x="737" y="1380" width="120" height="60" as="geometry"/>
                </mxCell>
                <mxCell id="96" value="R5 1 R5&lt;br&gt;R3 1 R3&lt;br&gt;R4 2 R3" style="whiteSpace=wrap;html=1;" vertex="1" parent="1">
                    <mxGeometry x="917" y="1150" width="120" height="60" as="geometry"/>
                </mxCell>
                <mxCell id="99" value="R5 1&lt;br&gt;R3 1&lt;br&gt;R4 2" style="whiteSpace=wrap;html=1;" vertex="1" parent="1">
                    <mxGeometry x="890" y="1440" width="120" height="60" as="geometry"/>
                </mxCell>
                <mxCell id="100" value="" style="edgeStyle=none;html=1;exitX=0;exitY=1;exitDx=0;exitDy=0;entryX=1;entryY=1;entryDx=0;entryDy=0;dashed=1;dashPattern=1 1;endArrow=none;endFill=0;" edge="1" parent="1" source="76" target="99">
                    <mxGeometry relative="1" as="geometry">
                        <mxPoint x="985.7867965644036" y="1321.2132034355964" as="sourcePoint"/>
                        <mxPoint x="878.2132034355964" y="1321.2132034355964" as="targetPoint"/>
                        <Array as="points">
                            <mxPoint x="1020" y="1420"/>
                        </Array>
                    </mxGeometry>
                </mxCell>
                <mxCell id="104" value="1. Inserir R2 nos vizinhos de R1" style="swimlane;" vertex="1" parent="1">
                    <mxGeometry x="1660" y="725" width="330" height="200" as="geometry"/>
                </mxCell>
                <mxCell id="115" style="edgeStyle=none;html=1;exitX=1;exitY=0.5;exitDx=0;exitDy=0;entryX=0;entryY=0.5;entryDx=0;entryDy=0;dashed=1;dashPattern=1 1;endArrow=none;endFill=0;startArrow=none;" edge="1" parent="104" source="116" target="114">
                    <mxGeometry relative="1" as="geometry"/>
                </mxCell>
                <mxCell id="112" value="" style="rhombus;whiteSpace=wrap;html=1;" vertex="1" parent="104">
                    <mxGeometry x="40" y="107.5" width="60" height="55" as="geometry"/>
                </mxCell>
                <mxCell id="113" style="edgeStyle=none;html=1;exitX=0.5;exitY=1;exitDx=0;exitDy=0;entryX=0.5;entryY=0;entryDx=0;entryDy=0;dashed=1;dashPattern=1 1;endArrow=none;endFill=0;" edge="1" parent="104" target="112" source="107">
                    <mxGeometry relative="1" as="geometry">
                        <mxPoint x="70" y="82.5" as="sourcePoint"/>
                    </mxGeometry>
                </mxCell>
                <mxCell id="119" style="edgeStyle=none;html=1;exitX=0.5;exitY=0;exitDx=0;exitDy=0;entryX=0.5;entryY=1;entryDx=0;entryDy=0;dashed=1;dashPattern=1 1;endArrow=none;endFill=0;" edge="1" parent="104" source="114" target="118">
                    <mxGeometry relative="1" as="geometry"/>
                </mxCell>
                <mxCell id="114" value="R1" style="ellipse;whiteSpace=wrap;html=1;aspect=fixed;" vertex="1" parent="104">
                    <mxGeometry x="230" y="110" width="50" height="50" as="geometry"/>
                </mxCell>
                <mxCell id="107" value="R1 C R2" style="text;html=1;strokeColor=none;fillColor=none;align=center;verticalAlign=middle;whiteSpace=wrap;rounded=0;" vertex="1" parent="104">
                    <mxGeometry x="30" y="37.5" width="80" height="35" as="geometry"/>
                </mxCell>
                <mxCell id="116" value="C R2" style="text;html=1;strokeColor=none;fillColor=none;align=center;verticalAlign=middle;whiteSpace=wrap;rounded=0;" vertex="1" parent="104">
                    <mxGeometry x="145" y="120" width="40" height="30" as="geometry"/>
                </mxCell>
                <mxCell id="117" value="" style="edgeStyle=none;html=1;exitX=1;exitY=0.5;exitDx=0;exitDy=0;entryX=0;entryY=0.5;entryDx=0;entryDy=0;dashed=1;dashPattern=1 1;endArrow=none;endFill=0;" edge="1" parent="104" source="112" target="116">
                    <mxGeometry relative="1" as="geometry">
                        <mxPoint x="1710" y="870" as="sourcePoint"/>
                        <mxPoint x="1789.9999999999864" y="870" as="targetPoint"/>
                    </mxGeometry>
                </mxCell>
                <mxCell id="118" value="Insere R2 em vizinhos" style="text;html=1;strokeColor=none;fillColor=none;align=center;verticalAlign=middle;whiteSpace=wrap;rounded=0;" vertex="1" parent="104">
                    <mxGeometry x="220" y="45" width="70" height="30" as="geometry"/>
                </mxCell>
                <mxCell id="105" value="2. Enviar mensagem de um roteador para outro" style="swimlane;" vertex="1" parent="1">
                    <mxGeometry x="1660" y="950" width="330" height="290" as="geometry"/>
                </mxCell>
                <mxCell id="140" value="" style="edgeStyle=none;html=1;dashed=1;dashPattern=1 1;endArrow=none;endFill=0;" edge="1" parent="105" source="120" target="139">
                    <mxGeometry relative="1" as="geometry"/>
                </mxCell>
                <mxCell id="120" value="R1" style="ellipse;whiteSpace=wrap;html=1;aspect=fixed;" vertex="1" parent="105">
                    <mxGeometry x="35" y="219" width="50" height="50" as="geometry"/>
                </mxCell>
                <mxCell id="121" value="R2" style="ellipse;whiteSpace=wrap;html=1;aspect=fixed;" vertex="1" parent="105">
                    <mxGeometry x="230" y="40" width="50" height="50" as="geometry"/>
                </mxCell>
                <mxCell id="128" style="edgeStyle=none;html=1;exitX=0.5;exitY=1;exitDx=0;exitDy=0;entryX=0.5;entryY=0;entryDx=0;entryDy=0;dashed=1;dashPattern=1 1;endArrow=none;endFill=0;startArrow=none;" edge="1" parent="105" source="129" target="120">
                    <mxGeometry relative="1" as="geometry"/>
                </mxCell>
                <mxCell id="125" value="" style="rhombus;whiteSpace=wrap;html=1;" vertex="1" parent="105">
                    <mxGeometry x="30" y="110" width="60" height="55" as="geometry"/>
                </mxCell>
                <mxCell id="126" style="edgeStyle=none;html=1;exitX=0.5;exitY=1;exitDx=0;exitDy=0;entryX=0.5;entryY=0;entryDx=0;entryDy=0;dashed=1;dashPattern=1 1;endArrow=none;endFill=0;" edge="1" parent="105" source="127" target="125">
                    <mxGeometry relative="1" as="geometry">
                        <mxPoint x="-1600" y="-640" as="sourcePoint"/>
                    </mxGeometry>
                </mxCell>
                <mxCell id="127" value="R1 E msg R2" style="text;html=1;strokeColor=none;fillColor=none;align=center;verticalAlign=middle;whiteSpace=wrap;rounded=0;" vertex="1" parent="105">
                    <mxGeometry x="20" y="40" width="80" height="35" as="geometry"/>
                </mxCell>
                <mxCell id="129" value="E msg R2" style="text;html=1;strokeColor=none;fillColor=none;align=center;verticalAlign=middle;whiteSpace=wrap;rounded=0;" vertex="1" parent="105">
                    <mxGeometry x="20" y="180" width="80" height="25" as="geometry"/>
                </mxCell>
                <mxCell id="130" value="" style="edgeStyle=none;html=1;exitX=0.5;exitY=1;exitDx=0;exitDy=0;entryX=0.5;entryY=0;entryDx=0;entryDy=0;dashed=1;dashPattern=1 1;endArrow=none;endFill=0;" edge="1" parent="105" source="125" target="129">
                    <mxGeometry relative="1" as="geometry">
                        <mxPoint x="1720" y="1115" as="sourcePoint"/>
                        <mxPoint x="1720" y="1169" as="targetPoint"/>
                    </mxGeometry>
                </mxCell>
                <mxCell id="137" value="" style="edgeStyle=none;html=1;dashed=1;dashPattern=1 1;endArrow=none;endFill=0;" edge="1" parent="105" source="135" target="136">
                    <mxGeometry relative="1" as="geometry"/>
                </mxCell>
                <mxCell id="135" value="Tabela de roteamento" style="rounded=0;whiteSpace=wrap;html=1;" vertex="1" parent="105">
                    <mxGeometry x="210" y="221.63" width="90" height="44.75" as="geometry"/>
                </mxCell>
                <mxCell id="142" style="edgeStyle=none;html=1;exitX=0.5;exitY=0;exitDx=0;exitDy=0;entryX=0.5;entryY=1;entryDx=0;entryDy=0;dashed=1;dashPattern=1 1;endArrow=none;endFill=0;startArrow=none;" edge="1" parent="105" source="143" target="121">
                    <mxGeometry relative="1" as="geometry"/>
                </mxCell>
                <mxCell id="136" value="Percorrer caminho" style="whiteSpace=wrap;html=1;rounded=0;" vertex="1" parent="105">
                    <mxGeometry x="210" y="140" width="90" height="40" as="geometry"/>
                </mxCell>
                <mxCell id="141" style="edgeStyle=none;html=1;exitX=1;exitY=0.5;exitDx=0;exitDy=0;entryX=0;entryY=0.5;entryDx=0;entryDy=0;dashed=1;dashPattern=1 1;endArrow=none;endFill=0;" edge="1" parent="105" source="139" target="135">
                    <mxGeometry relative="1" as="geometry"/>
                </mxCell>
                <mxCell id="139" value="Monta &lt;br&gt;msg" style="whiteSpace=wrap;html=1;" vertex="1" parent="105">
                    <mxGeometry x="110" y="221.63" width="85" height="44.75" as="geometry"/>
                </mxCell>
                <mxCell id="143" value="Recebe msg" style="text;html=1;strokeColor=none;fillColor=none;align=center;verticalAlign=middle;whiteSpace=wrap;rounded=0;" vertex="1" parent="105">
                    <mxGeometry x="217.5" y="100" width="75" height="20" as="geometry"/>
                </mxCell>
                <mxCell id="144" value="" style="edgeStyle=none;html=1;exitX=0.5;exitY=0;exitDx=0;exitDy=0;entryX=0.5;entryY=1;entryDx=0;entryDy=0;dashed=1;dashPattern=1 1;endArrow=none;endFill=0;" edge="1" parent="105" source="136" target="143">
                    <mxGeometry relative="1" as="geometry">
                        <mxPoint x="1915" y="1090" as="sourcePoint"/>
                        <mxPoint x="1915" y="1040" as="targetPoint"/>
                    </mxGeometry>
                </mxCell>
            </root>
        </mxGraphModel>
    </diagram>
</mxfile>